<svg xmlns="http://www.w3.org/2000/svg" xmlns:xlink="http://www.w3.org/1999/xlink" width="500" zoomAndPan="magnify" viewBox="0 0 375 374.999991" height="500" preserveAspectRatio="xMidYMid meet" version="1.2"><defs><clipPath id="83effdb2c6"><path d="M 123 85 L 250 85 L 250 224 L 123 224 Z M 123 85 "/></clipPath><clipPath id="fc3afbe2cc"><path d="M 163.277344 256.230469 L 85.59375 135.875 L 211.621094 54.527344 L 289.304688 174.882812 Z M 163.277344 256.230469 "/></clipPath><clipPath id="7f05e4e562"><path d="M 163.277344 256.230469 L 85.59375 135.875 L 211.621094 54.527344 L 289.304688 174.882812 Z M 163.277344 256.230469 "/></clipPath><clipPath id="cb7273c8ee"><path d="M 220 237.28125 L 241 237.28125 L 241 259 L 220 259 Z M 220 237.28125 "/></clipPath><clipPath id="4c0a0e6e99"><path d="M 216.710938 255 L 237 255 L 237 270 L 216.710938 270 Z M 216.710938 255 "/></clipPath><clipPath id="20d55376e5"><path d="M 235 264 L 242.960938 264 L 242.960938 277 L 235 277 Z M 235 264 "/></clipPath></defs><g id="8dcdcf692f"><rect x="0" width="375" y="0" height="374.999991" style="fill:#ffffff;fill-opacity:1;stroke:none;"/><rect x="0" width="375" y="0" height="374.999991" style="fill:#ffffff;fill-opacity:1;stroke:none;"/><path style="fill:none;stroke-width:4;stroke-linecap:round;stroke-linejoin:miter;stroke:#000000;stroke-opacity:1;stroke-miterlimit:4;" d="M 2.000678 1.997596 L 53.244161 1.997596 " transform="matrix(0,-0.746818,0.746818,0,205.457379,280.38086)"/><g clip-rule="nonzero" clip-path="url(#83effdb2c6)"><g clip-rule="nonzero" clip-path="url(#fc3afbe2cc)"><g clip-rule="nonzero" clip-path="url(#7f05e4e562)"><path style=" stroke:none;fill-rule:nonzero;fill:#000000;fill-opacity:1;" d="M 244.117188 163.378906 C 238.832031 170.03125 240.320312 179.53125 239.339844 187.976562 C 237.765625 201.570312 228.601562 214.050781 216.097656 219.644531 C 201.222656 226.269531 184.121094 223.183594 167.824219 223.027344 C 161.859375 222.964844 155.753906 223.304688 150.0625 221.539062 C 139.617188 218.304688 132.085938 207.824219 131.601562 196.902344 C 131.179688 187.410156 135.445312 177.875 133.398438 168.59375 C 132.539062 164.722656 130.636719 161.171875 129.003906 157.550781 C 124.363281 147.140625 122.078125 135.285156 124.917969 124.242188 C 127.753906 113.199219 136.433594 103.292969 147.625 101.117188 C 153.09375 100.054688 158.800781 100.820312 164.257812 99.679688 C 175.082031 97.386719 183.398438 87.910156 194.296875 85.992188 C 199.808594 85.023438 205.5 86.101562 210.769531 87.9375 C 212.492188 88.542969 214.179688 89.222656 215.835938 89.984375 C 217.492188 90.746094 219.105469 91.585938 220.683594 92.5 C 222.261719 93.414062 223.792969 94.402344 225.277344 95.460938 C 226.761719 96.519531 228.191406 97.644531 229.570312 98.835938 C 230.945312 100.03125 232.265625 101.285156 233.523438 102.605469 C 234.785156 103.921875 235.980469 105.296875 237.109375 106.726562 C 238.238281 108.15625 239.296875 109.636719 240.289062 111.167969 C 241.28125 112.699219 242.195312 114.273438 243.039062 115.890625 C 243.878906 117.503906 244.644531 119.160156 245.328125 120.847656 C 246.015625 122.535156 246.621094 124.253906 247.144531 126 C 247.667969 127.746094 248.109375 129.511719 248.46875 131.300781 C 248.828125 133.085938 249.097656 134.886719 249.289062 136.699219 C 249.476562 138.511719 249.578125 140.332031 249.59375 142.152344 C 249.609375 143.976562 249.542969 145.796875 249.386719 147.613281 C 249.230469 149.429688 248.992188 151.234375 248.667969 153.027344 C 248.339844 154.820312 247.933594 156.59375 247.441406 158.351562 "/></g></g></g><g clip-rule="nonzero" clip-path="url(#cb7273c8ee)"><path style=" stroke:none;fill-rule:evenodd;fill:#000000;fill-opacity:1;" d="M 224.039062 240.414062 C 225.773438 238.457031 227.746094 237.578125 229.710938 237.46875 C 232.613281 237.300781 235.535156 238.84375 237.675781 241.214844 C 241.238281 245.164062 242.589844 251.335938 238.359375 255.402344 C 235.984375 257.6875 232.046875 258.953125 228.464844 258.632812 C 226.023438 258.417969 223.753906 257.46875 222.226562 255.664062 C 220.695312 253.851562 220.363281 251.015625 220.238281 248.746094 C 220.148438 247.078125 220.292969 245.367188 221.058594 243.847656 C 221.75 242.472656 222.824219 241.359375 224.039062 240.414062 Z M 227.882812 239.261719 C 227.859375 239.46875 227.738281 239.664062 227.539062 239.777344 C 225.511719 240.925781 223.371094 242.320312 222.296875 244.457031 C 221.636719 245.765625 221.542969 247.238281 221.621094 248.675781 C 221.730469 250.667969 221.9375 253.191406 223.289062 254.785156 C 224.914062 256.710938 227.550781 257.4375 230.203125 257.296875 C 232.902344 257.15625 235.636719 256.113281 237.398438 254.421875 C 241.066406 250.894531 239.730469 245.550781 236.644531 242.128906 C 234.792969 240.078125 232.296875 238.691406 229.789062 238.832031 C 229.148438 238.871094 228.511719 239.007812 227.882812 239.261719 Z M 227.882812 239.261719 "/></g><path style=" stroke:none;fill-rule:evenodd;fill:#000000;fill-opacity:1;" d="M 224.359375 250.757812 C 224.324219 250.382812 224.601562 250.046875 224.980469 250.011719 C 225.359375 249.976562 225.699219 250.25 225.734375 250.625 C 225.769531 250.972656 225.789062 251.394531 225.917969 251.726562 C 226.054688 252.078125 225.875 252.476562 225.519531 252.609375 C 225.164062 252.746094 224.761719 252.570312 224.625 252.214844 C 224.457031 251.777344 224.40625 251.21875 224.359375 250.757812 Z M 224.359375 250.757812 "/><path style=" stroke:none;fill-rule:evenodd;fill:#000000;fill-opacity:1;" d="M 230.160156 249.863281 C 230.125 249.488281 230.40625 249.15625 230.785156 249.121094 C 231.164062 249.085938 231.5 249.363281 231.535156 249.738281 C 231.574219 250.144531 231.625 250.566406 231.734375 250.957031 C 231.835938 251.324219 231.617188 251.699219 231.25 251.796875 C 230.878906 251.898438 230.5 251.683594 230.398438 251.316406 C 230.269531 250.847656 230.203125 250.347656 230.160156 249.863281 Z M 230.160156 249.863281 "/><g clip-rule="nonzero" clip-path="url(#4c0a0e6e99)"><path style=" stroke:none;fill-rule:evenodd;fill:#000000;fill-opacity:1;" d="M 224.003906 256.058594 C 224.339844 255.878906 224.761719 256.003906 224.941406 256.335938 C 225.125 256.667969 225 257.085938 224.664062 257.261719 C 222.363281 258.492188 219.730469 259.652344 218.703125 262.222656 C 218.300781 263.226562 218.121094 264.542969 218.367188 265.691406 C 218.589844 266.714844 219.171875 267.605469 220.328125 267.898438 C 220.777344 268.011719 221.265625 267.902344 221.738281 267.726562 C 222.289062 267.519531 222.8125 267.207031 223.230469 266.925781 C 223.984375 266.414062 224.679688 265.726562 225.40625 265.089844 C 226.222656 264.378906 227.082031 263.734375 228.0625 263.386719 C 229.371094 262.925781 230.839844 262.976562 232.1875 262.796875 C 233.285156 262.652344 234.304688 262.339844 234.980469 261.183594 C 235.171875 260.855469 235.59375 260.742188 235.925781 260.933594 C 236.253906 261.121094 236.367188 261.539062 236.175781 261.867188 C 235.246094 263.460938 233.882812 263.953125 232.371094 264.152344 C 231.113281 264.320312 229.742188 264.246094 228.527344 264.675781 C 227.707031 264.964844 227.003906 265.523438 226.320312 266.117188 C 225.550781 266.789062 224.8125 267.511719 224.011719 268.054688 C 222.957031 268.769531 221.324219 269.5625 219.984375 269.222656 C 218.261719 268.789062 217.347656 267.503906 217.015625 265.976562 C 216.710938 264.566406 216.925781 262.953125 217.417969 261.71875 C 218.570312 258.839844 221.433594 257.433594 224.003906 256.058594 Z M 224.003906 256.058594 "/></g><path style=" stroke:none;fill-rule:evenodd;fill:#000000;fill-opacity:1;" d="M 237.277344 256.0625 C 236.9375 255.890625 236.808594 255.476562 236.980469 255.140625 C 237.15625 254.804688 237.574219 254.675781 237.914062 254.847656 C 242.441406 257.167969 242.960938 263.710938 239.027344 266.871094 C 235.6875 269.554688 231.328125 269.949219 227.28125 268.921875 C 226.492188 268.722656 225.640625 268.570312 224.902344 268.210938 C 224.5625 268.046875 224.417969 267.636719 224.585938 267.296875 C 224.753906 266.957031 225.167969 266.816406 225.511719 266.984375 C 226.164062 267.300781 226.925781 267.421875 227.621094 267.597656 C 231.246094 268.519531 235.164062 268.214844 238.15625 265.808594 C 241.34375 263.246094 240.949219 257.945312 237.277344 256.0625 Z M 237.277344 256.0625 "/><path style=" stroke:none;fill-rule:evenodd;fill:#000000;fill-opacity:1;" d="M 221.851562 275.675781 C 221.960938 274.621094 221.695312 273.5 221.601562 272.453125 C 221.5 271.359375 221.511719 270.257812 221.421875 269.160156 C 221.390625 268.785156 221.671875 268.453125 222.054688 268.425781 C 222.433594 268.394531 222.769531 268.675781 222.796875 269.050781 C 222.886719 270.140625 222.878906 271.238281 222.976562 272.328125 C 223.082031 273.46875 223.351562 274.6875 223.226562 275.839844 C 223.1875 276.199219 222.914062 276.605469 222.589844 276.996094 C 222.5 277.101562 222.410156 277.207031 222.335938 277.316406 C 222.3125 277.351562 222.289062 277.390625 222.269531 277.425781 C 222.257812 277.453125 222.226562 277.476562 222.246094 277.503906 C 222.386719 277.71875 222.613281 277.765625 222.84375 277.78125 C 223.105469 277.796875 223.378906 277.765625 223.640625 277.738281 C 224.351562 277.664062 225.183594 277.511719 225.929688 277.207031 C 226.585938 276.9375 227.183594 276.554688 227.511719 275.960938 C 227.8125 275.421875 227.8125 274.59375 227.734375 273.703125 C 227.59375 272.15625 227.144531 270.4375 226.933594 269.40625 C 226.859375 269.035156 227.105469 268.675781 227.476562 268.601562 C 227.851562 268.527344 228.214844 268.769531 228.289062 269.140625 C 228.507812 270.207031 228.964844 271.980469 229.109375 273.582031 C 229.21875 274.785156 229.128906 275.894531 228.726562 276.621094 C 227.816406 278.261719 225.527344 278.914062 223.785156 279.097656 C 222.785156 279.203125 221.695312 279.1875 221.082031 278.242188 C 220.714844 277.679688 220.816406 277.132812 221.152344 276.613281 C 221.300781 276.378906 221.503906 276.152344 221.683594 275.929688 C 221.746094 275.847656 221.839844 275.699219 221.851562 275.675781 Z M 221.851562 275.675781 "/><path style=" stroke:none;fill-rule:evenodd;fill:#000000;fill-opacity:1;" d="M 226.652344 278.039062 C 226.671875 277.660156 227 277.375 227.382812 277.394531 C 227.761719 277.417969 228.054688 277.742188 228.03125 278.121094 C 228.023438 278.269531 228.023438 278.398438 228.046875 278.5 C 228.054688 278.539062 228.050781 278.574219 228.074219 278.589844 C 228.144531 278.640625 228.242188 278.625 228.359375 278.621094 C 228.617188 278.617188 228.921875 278.558594 229.257812 278.492188 C 230.71875 278.195312 232.8125 277.753906 233.902344 276.65625 C 234.550781 276.003906 234.488281 275.082031 234.320312 274.140625 C 234.105469 272.953125 233.667969 271.722656 233.585938 270.75 C 233.554688 270.371094 233.835938 270.042969 234.21875 270.011719 C 234.597656 269.980469 234.933594 270.257812 234.964844 270.632812 C 235.0625 271.78125 235.664062 273.285156 235.785156 274.65625 C 235.882812 275.777344 235.679688 276.816406 234.890625 277.613281 C 233.625 278.886719 231.234375 279.488281 229.535156 279.832031 C 229.007812 279.9375 228.542969 280.007812 228.167969 279.988281 C 227.796875 279.964844 227.488281 279.863281 227.25 279.6875 C 226.875 279.410156 226.597656 278.921875 226.652344 278.039062 Z M 226.652344 278.039062 "/><g clip-rule="nonzero" clip-path="url(#20d55376e5)"><path style=" stroke:none;fill-rule:evenodd;fill:#000000;fill-opacity:1;" d="M 235.820312 276.507812 C 235.441406 276.570312 235.085938 276.320312 235.023438 275.949219 C 234.960938 275.574219 235.214844 275.222656 235.589844 275.160156 C 236.453125 275.019531 237.40625 274.929688 238.1875 274.519531 C 239.910156 273.613281 240.84375 271.390625 240.832031 269.546875 C 240.820312 268.019531 240.214844 266.582031 239.9375 265.097656 C 239.867188 264.726562 240.113281 264.371094 240.488281 264.300781 C 240.863281 264.234375 241.226562 264.480469 241.296875 264.851562 C 241.585938 266.414062 242.199219 267.929688 242.210938 269.535156 C 242.230469 271.847656 240.992188 274.59375 238.835938 275.726562 C 237.921875 276.203125 236.824219 276.34375 235.820312 276.507812 Z M 235.820312 276.507812 "/></g><path style=" stroke:none;fill-rule:evenodd;fill:#000000;fill-opacity:1;" d="M 236.75 268.058594 C 236.570312 267.726562 236.695312 267.308594 237.03125 267.128906 C 237.367188 266.953125 237.785156 267.078125 237.96875 267.410156 C 238.402344 268.207031 238.863281 268.988281 239.207031 269.832031 C 239.347656 270.183594 239.171875 270.582031 238.820312 270.722656 C 238.464844 270.859375 238.0625 270.691406 237.921875 270.339844 C 237.601562 269.542969 237.160156 268.808594 236.75 268.058594 Z M 236.75 268.058594 "/><path style=" stroke:none;fill-rule:evenodd;fill:#000000;fill-opacity:1;" d="M 220.105469 263.378906 C 219.722656 263.390625 219.402344 263.09375 219.390625 262.714844 C 219.378906 262.339844 219.679688 262.023438 220.0625 262.011719 C 220.539062 261.996094 221.023438 261.929688 221.472656 261.761719 C 221.984375 261.570312 222.453125 261.285156 222.984375 261.140625 C 225.058594 260.578125 227.984375 260.914062 229.316406 262.820312 C 229.535156 263.128906 229.453125 263.554688 229.140625 263.769531 C 228.828125 263.984375 228.394531 263.90625 228.179688 263.597656 C 227.171875 262.152344 224.921875 262.03125 223.351562 262.460938 C 222.859375 262.59375 222.433594 262.867188 221.960938 263.042969 C 221.367188 263.261719 220.734375 263.359375 220.105469 263.378906 Z M 220.105469 263.378906 "/><path style=" stroke:none;fill-rule:evenodd;fill:#000000;fill-opacity:1;" d="M 227.175781 260.308594 C 227.570312 259.953125 228.003906 259.636719 228.5 259.433594 C 230.734375 258.515625 233.109375 259.851562 234.289062 261.695312 C 234.492188 262.015625 234.394531 262.4375 234.074219 262.640625 C 233.75 262.839844 233.324219 262.746094 233.121094 262.425781 C 232.277344 261.109375 230.625 260.039062 229.03125 260.695312 C 228.585938 260.878906 228.222656 261.199219 227.878906 261.527344 C 227.828125 261.578125 227.46875 261.945312 227.351562 262.007812 C 227.128906 262.132812 226.9375 262.109375 226.820312 262.082031 C 226.722656 262.054688 226.570312 261.996094 226.4375 261.832031 C 226.363281 261.746094 226.179688 261.332031 226.140625 261.246094 C 226.007812 261.015625 225.835938 260.808594 225.601562 260.679688 C 225.273438 260.496094 224.867188 260.460938 224.503906 260.429688 C 223.707031 260.359375 222.828125 260.386719 222.289062 261.035156 C 222.054688 261.320312 222.015625 261.695312 221.953125 262.046875 C 221.890625 262.417969 221.53125 262.667969 221.15625 262.605469 C 220.78125 262.542969 220.527344 262.1875 220.589844 261.816406 C 220.691406 261.230469 220.828125 260.640625 221.21875 260.167969 C 222.058594 259.15625 223.386719 258.960938 224.625 259.066406 C 225.179688 259.117188 225.785156 259.210938 226.28125 259.488281 C 226.644531 259.691406 226.941406 259.976562 227.175781 260.308594 Z M 227.175781 260.308594 "/><path style=" stroke:none;fill-rule:evenodd;fill:#000000;fill-opacity:1;" d="M 228.917969 256.738281 C 228.542969 256.804688 228.183594 256.558594 228.113281 256.1875 C 228.046875 255.816406 228.296875 255.460938 228.671875 255.394531 C 229.03125 255.328125 229.394531 255.277344 229.757812 255.25 C 230.140625 255.21875 230.472656 255.5 230.503906 255.875 C 230.535156 256.253906 230.25 256.582031 229.871094 256.613281 C 229.550781 256.640625 229.234375 256.679688 228.917969 256.738281 Z M 228.917969 256.738281 "/><path style=" stroke:none;fill-rule:evenodd;fill:#ffffff;fill-opacity:1;" d="M 224.367188 257.417969 C 225.589844 258.109375 226.996094 258.503906 228.464844 258.632812 C 231.625 258.914062 235.066406 257.960938 237.464844 256.164062 C 240.960938 258.125 241.289062 263.289062 238.15625 265.808594 C 235.164062 268.214844 231.246094 268.519531 227.621094 267.597656 C 226.925781 267.421875 226.164062 267.300781 225.511719 266.984375 C 225.472656 266.964844 225.433594 266.953125 225.398438 266.941406 C 225.703125 266.667969 226.011719 266.386719 226.320312 266.117188 C 227.003906 265.523438 227.707031 264.964844 228.527344 264.675781 C 229.742188 264.246094 231.113281 264.320312 232.371094 264.152344 C 233.882812 263.953125 235.246094 263.460938 236.175781 261.867188 C 236.367188 261.539062 236.253906 261.121094 235.925781 260.933594 C 235.59375 260.742188 235.171875 260.855469 234.980469 261.183594 C 234.800781 261.484375 234.601562 261.730469 234.382812 261.929688 C 234.367188 261.847656 234.335938 261.769531 234.289062 261.695312 C 233.109375 259.851562 230.734375 258.515625 228.5 259.433594 C 228.003906 259.636719 227.570312 259.953125 227.175781 260.308594 C 226.941406 259.976562 226.644531 259.691406 226.28125 259.488281 C 225.785156 259.210938 225.179688 259.117188 224.625 259.066406 C 223.386719 258.960938 222.058594 259.15625 221.21875 260.167969 C 220.828125 260.640625 220.691406 261.230469 220.589844 261.816406 C 220.582031 261.867188 220.578125 261.921875 220.582031 261.972656 C 220.410156 261.992188 220.234375 262.003906 220.0625 262.011719 C 219.679688 262.023438 219.378906 262.339844 219.390625 262.714844 C 219.402344 263.09375 219.722656 263.390625 220.105469 263.378906 C 220.734375 263.359375 221.367188 263.261719 221.960938 263.042969 C 222.433594 262.867188 222.859375 262.59375 223.351562 262.460938 C 224.847656 262.054688 226.960938 262.144531 228.027344 263.398438 C 227.058594 263.75 226.214844 264.386719 225.40625 265.089844 C 224.679688 265.726562 223.984375 266.414062 223.230469 266.925781 C 222.8125 267.207031 222.289062 267.519531 221.738281 267.726562 C 221.265625 267.902344 220.777344 268.011719 220.328125 267.898438 C 219.171875 267.605469 218.589844 266.714844 218.367188 265.691406 C 218.121094 264.542969 218.300781 263.226562 218.703125 262.222656 C 219.6875 259.761719 222.144531 258.59375 224.367188 257.417969 Z M 229.425781 263.070312 C 229.40625 262.980469 229.371094 262.898438 229.316406 262.820312 C 228.9375 262.277344 228.429688 261.859375 227.847656 261.558594 C 227.863281 261.542969 227.871094 261.535156 227.878906 261.527344 C 228.222656 261.199219 228.585938 260.878906 229.03125 260.695312 C 230.625 260.039062 232.277344 261.109375 233.121094 262.425781 C 233.15625 262.484375 233.199219 262.53125 233.246094 262.574219 C 232.910156 262.683594 232.554688 262.75 232.1875 262.796875 C 231.292969 262.917969 230.34375 262.933594 229.425781 263.070312 Z M 224.519531 267.679688 C 224.546875 267.902344 224.683594 268.105469 224.902344 268.210938 C 225.570312 268.535156 226.332031 268.691406 227.054688 268.867188 C 226.945312 269.015625 226.894531 269.210938 226.933594 269.40625 C 227.144531 270.4375 227.59375 272.15625 227.734375 273.703125 C 227.8125 274.59375 227.8125 275.421875 227.511719 275.960938 C 227.183594 276.554688 226.585938 276.9375 225.929688 277.207031 C 225.183594 277.511719 224.351562 277.664062 223.640625 277.738281 C 223.378906 277.765625 223.105469 277.796875 222.84375 277.78125 C 222.613281 277.765625 222.386719 277.71875 222.246094 277.503906 C 222.226562 277.476562 222.257812 277.453125 222.269531 277.425781 C 222.289062 277.390625 222.3125 277.351562 222.335938 277.316406 C 222.410156 277.207031 222.5 277.101562 222.589844 276.996094 C 222.914062 276.605469 223.1875 276.199219 223.226562 275.839844 C 223.351562 274.6875 223.082031 273.46875 222.976562 272.328125 C 222.878906 271.238281 222.886719 270.140625 222.796875 269.050781 C 222.789062 268.953125 222.761719 268.867188 222.71875 268.785156 C 223.195312 268.566406 223.640625 268.304688 224.011719 268.054688 C 224.183594 267.9375 224.351562 267.8125 224.519531 267.679688 Z M 240.089844 265.808594 C 240.390625 267.046875 240.820312 268.265625 240.832031 269.546875 C 240.84375 271.390625 239.910156 273.613281 238.1875 274.519531 C 237.46875 274.894531 236.609375 275 235.808594 275.125 C 235.808594 274.972656 235.800781 274.816406 235.785156 274.65625 C 235.664062 273.285156 235.0625 271.78125 234.964844 270.632812 C 234.933594 270.257812 234.597656 269.980469 234.21875 270.011719 C 233.835938 270.042969 233.554688 270.371094 233.585938 270.75 C 233.667969 271.722656 234.105469 272.953125 234.320312 274.140625 C 234.488281 275.082031 234.550781 276.003906 233.902344 276.65625 C 232.8125 277.753906 230.71875 278.195312 229.257812 278.492188 C 228.921875 278.558594 228.617188 278.617188 228.359375 278.621094 C 228.242188 278.625 228.144531 278.640625 228.074219 278.589844 C 228.050781 278.574219 228.054688 278.539062 228.046875 278.5 C 228.023438 278.398438 228.023438 278.269531 228.03125 278.121094 C 228.042969 277.933594 227.976562 277.761719 227.863281 277.632812 C 228.214844 277.347656 228.507812 277.011719 228.726562 276.621094 C 229.128906 275.894531 229.21875 274.785156 229.109375 273.582031 C 228.964844 271.988281 228.507812 270.214844 228.292969 269.148438 C 231.203125 269.707031 234.214844 269.511719 236.851562 268.242188 C 237.230469 268.929688 237.625 269.609375 237.921875 270.339844 C 238.0625 270.691406 238.464844 270.859375 238.820312 270.722656 C 239.171875 270.582031 239.347656 270.183594 239.207031 269.832031 C 238.886719 269.046875 238.464844 268.3125 238.054688 267.570312 C 238.390625 267.355469 238.714844 267.121094 239.027344 266.871094 C 239.429688 266.546875 239.78125 266.191406 240.089844 265.808594 Z M 222.058594 261.511719 C 222.105469 261.339844 222.171875 261.175781 222.289062 261.035156 C 222.828125 260.386719 223.707031 260.359375 224.503906 260.429688 C 224.867188 260.460938 225.273438 260.496094 225.601562 260.679688 C 225.734375 260.753906 225.847656 260.851562 225.945312 260.96875 C 224.929688 260.820312 223.878906 260.898438 222.984375 261.140625 C 222.660156 261.230469 222.359375 261.371094 222.058594 261.511719 Z M 227.882812 239.261719 C 228.511719 239.007812 229.148438 238.871094 229.789062 238.832031 C 232.296875 238.691406 234.792969 240.078125 236.644531 242.128906 C 239.730469 245.550781 241.066406 250.894531 237.398438 254.421875 C 235.636719 256.113281 232.902344 257.15625 230.203125 257.296875 C 227.550781 257.4375 224.914062 256.710938 223.289062 254.785156 C 221.9375 253.191406 221.730469 250.667969 221.621094 248.675781 C 221.542969 247.238281 221.636719 245.765625 222.296875 244.457031 C 223.371094 242.320312 225.511719 240.925781 227.539062 239.777344 C 227.738281 239.664062 227.859375 239.46875 227.882812 239.261719 Z M 224.359375 250.757812 C 224.40625 251.21875 224.457031 251.777344 224.625 252.214844 C 224.761719 252.570312 225.164062 252.746094 225.519531 252.609375 C 225.875 252.476562 226.054688 252.078125 225.917969 251.726562 C 225.789062 251.394531 225.769531 250.972656 225.734375 250.625 C 225.699219 250.25 225.359375 249.976562 224.980469 250.011719 C 224.601562 250.046875 224.324219 250.382812 224.359375 250.757812 Z M 230.160156 249.863281 C 230.203125 250.347656 230.269531 250.847656 230.398438 251.316406 C 230.5 251.683594 230.878906 251.898438 231.25 251.796875 C 231.617188 251.699219 231.835938 251.324219 231.734375 250.957031 C 231.625 250.566406 231.574219 250.144531 231.535156 249.738281 C 231.5 249.363281 231.164062 249.085938 230.785156 249.121094 C 230.40625 249.15625 230.125 249.488281 230.160156 249.863281 Z M 228.917969 256.738281 C 229.234375 256.679688 229.550781 256.640625 229.871094 256.613281 C 230.25 256.582031 230.535156 256.253906 230.503906 255.875 C 230.472656 255.5 230.140625 255.21875 229.757812 255.25 C 229.394531 255.277344 229.03125 255.328125 228.671875 255.394531 C 228.296875 255.460938 228.046875 255.816406 228.113281 256.1875 C 228.183594 256.558594 228.542969 256.804688 228.917969 256.738281 Z M 228.917969 256.738281 "/><g style="fill:#ffffff;fill-opacity:1;"><g transform="translate(134.197524, 202.932556)"><path style="stroke:none" d="M 66.390625 -18.359375 C 66.390625 -16.710938 66.242188 -14.726562 65.953125 -12.40625 C 65.671875 -10.09375 65.113281 -7.878906 64.28125 -5.765625 C 63.457031 -3.660156 62.34375 -1.882812 60.9375 -0.4375 C 59.53125 1.007812 57.664062 1.734375 55.34375 1.734375 C 52.28125 1.734375 49.984375 0.617188 48.453125 -1.609375 C 46.929688 -3.847656 45.835938 -6.515625 45.171875 -9.609375 C 44.503906 -12.710938 44.109375 -15.878906 43.984375 -19.109375 C 43.867188 -22.335938 43.769531 -24.90625 43.6875 -26.8125 C 37.726562 -25.8125 31.851562 -24.941406 26.0625 -24.203125 C 25.894531 -22.296875 25.539062 -19.9375 25 -17.125 C 24.46875 -14.3125 23.640625 -11.601562 22.515625 -9 C 21.398438 -6.394531 19.953125 -4.140625 18.171875 -2.234375 C 16.398438 -0.328125 14.234375 0.625 11.671875 0.625 C 9.679688 0.625 8.128906 -0.0976562 7.015625 -1.546875 C 5.898438 -2.992188 5.050781 -4.710938 4.46875 -6.703125 C 3.882812 -8.691406 3.53125 -10.738281 3.40625 -12.84375 C 3.289062 -14.957031 3.234375 -16.71875 3.234375 -18.125 C 3.234375 -22.832031 3.601562 -27.484375 4.34375 -32.078125 C 5.082031 -36.671875 5.953125 -41.242188 6.953125 -45.796875 C 7.441406 -48.191406 8.097656 -51.003906 8.921875 -54.234375 C 9.753906 -57.460938 10.769531 -60.789062 11.96875 -64.21875 C 13.175781 -67.65625 14.582031 -71.046875 16.1875 -74.390625 C 17.800781 -77.742188 19.640625 -80.742188 21.703125 -83.390625 C 23.773438 -86.035156 26.132812 -88.1875 28.78125 -89.84375 C 31.4375 -91.5 34.378906 -92.328125 37.609375 -92.328125 C 40.742188 -92.328125 43.46875 -91.625 45.78125 -90.21875 C 48.101562 -88.8125 50.132812 -86.945312 51.875 -84.625 C 53.613281 -82.3125 55.0625 -79.6875 56.21875 -76.75 C 57.375 -73.8125 58.34375 -70.832031 59.125 -67.8125 C 59.914062 -64.800781 60.578125 -61.847656 61.109375 -58.953125 C 61.648438 -56.054688 62.128906 -53.488281 62.546875 -51.25 C 63.617188 -45.875 64.523438 -40.4375 65.265625 -34.9375 C 66.015625 -29.4375 66.390625 -23.910156 66.390625 -18.359375 Z M 42.4375 -48.515625 C 42.4375 -49.515625 42.375 -51.148438 42.25 -53.421875 C 42.125 -55.703125 41.851562 -57.976562 41.4375 -60.25 C 41.03125 -62.519531 40.390625 -64.546875 39.515625 -66.328125 C 38.648438 -68.109375 37.472656 -69 35.984375 -69 C 35.160156 -69 34.375 -68.441406 33.625 -67.328125 C 32.882812 -66.210938 32.222656 -64.804688 31.640625 -63.109375 C 31.066406 -61.410156 30.550781 -59.523438 30.09375 -57.453125 C 29.632812 -55.390625 29.238281 -53.40625 28.90625 -51.5 C 28.582031 -49.59375 28.335938 -47.875 28.171875 -46.34375 C 28.003906 -44.820312 27.878906 -43.726562 27.796875 -43.0625 C 32.765625 -43.476562 37.644531 -44.097656 42.4375 -44.921875 Z M 42.4375 -48.515625 "/></g></g><g style="fill:#000000;fill-opacity:1;"><g transform="translate(109.717893, 257.477061)"><path style="stroke:none" d="M 0.28125 -5.578125 C 0.425781 -6.316406 0.617188 -7.144531 0.859375 -8.0625 C 1.097656 -8.976562 1.367188 -9.921875 1.671875 -10.890625 C 1.972656 -11.859375 2.28125 -12.789062 2.59375 -13.6875 C 2.90625 -14.59375 3.210938 -15.421875 3.515625 -16.171875 C 3.816406 -16.929688 4.085938 -17.535156 4.328125 -17.984375 C 4.828125 -18.160156 5.425781 -18.320312 6.125 -18.46875 C 6.832031 -18.613281 7.578125 -18.695312 8.359375 -18.71875 C 9.148438 -18.738281 9.929688 -18.632812 10.703125 -18.40625 C 11.484375 -18.1875 12.195312 -17.789062 12.84375 -17.21875 C 13.5 -16.65625 14.039062 -15.863281 14.46875 -14.84375 C 14.65625 -14.351562 14.878906 -13.722656 15.140625 -12.953125 C 15.398438 -12.179688 15.671875 -11.328125 15.953125 -10.390625 C 16.234375 -9.460938 16.507812 -8.5 16.78125 -7.5 C 17.050781 -6.507812 17.300781 -5.539062 17.53125 -4.59375 C 17.757812 -3.65625 17.941406 -2.800781 18.078125 -2.03125 C 18.046875 -1.695312 17.875 -1.363281 17.5625 -1.03125 C 17.257812 -0.707031 16.867188 -0.429688 16.390625 -0.203125 C 15.921875 0.015625 15.410156 0.160156 14.859375 0.234375 C 14.304688 0.304688 13.757812 0.265625 13.21875 0.109375 C 12.675781 -0.046875 12.1875 -0.359375 11.75 -0.828125 C 11.3125 -1.296875 10.972656 -1.945312 10.734375 -2.78125 C 10.148438 -2.8125 9.546875 -2.816406 8.921875 -2.796875 C 8.296875 -2.785156 7.6875 -2.789062 7.09375 -2.8125 C 6.9375 -2.425781 6.785156 -2.003906 6.640625 -1.546875 C 6.492188 -1.097656 6.351562 -0.628906 6.21875 -0.140625 C 5.09375 0.273438 4.109375 0.421875 3.265625 0.296875 C 2.429688 0.179688 1.757812 -0.132812 1.25 -0.65625 C 0.738281 -1.1875 0.398438 -1.875 0.234375 -2.71875 C 0.0664062 -3.570312 0.0820312 -4.523438 0.28125 -5.578125 Z M 7.8125 -8.09375 C 8.207031 -8.09375 8.585938 -8.09375 8.953125 -8.09375 C 9.328125 -8.09375 9.703125 -8.09375 10.078125 -8.09375 C 9.910156 -8.84375 9.734375 -9.582031 9.546875 -10.3125 C 9.359375 -11.039062 9.179688 -11.773438 9.015625 -12.515625 C 8.972656 -12.503906 8.914062 -12.5 8.84375 -12.5 C 8.6875 -11.769531 8.519531 -11.039062 8.34375 -10.3125 C 8.164062 -9.59375 7.988281 -8.851562 7.8125 -8.09375 Z M 7.8125 -8.09375 "/></g></g><g style="fill:#000000;fill-opacity:1;"><g transform="translate(127.248831, 257.477061)"><path style="stroke:none" d="M 21.25 -17.9375 C 21.851562 -18.226562 22.476562 -18.425781 23.125 -18.53125 C 23.78125 -18.644531 24.398438 -18.648438 24.984375 -18.546875 C 25.566406 -18.453125 26.082031 -18.242188 26.53125 -17.921875 C 26.976562 -17.597656 27.3125 -17.148438 27.53125 -16.578125 C 27.757812 -16.015625 27.820312 -15.320312 27.71875 -14.5 C 27.65625 -13.976562 27.550781 -13.335938 27.40625 -12.578125 C 27.269531 -11.816406 27.101562 -10.988281 26.90625 -10.09375 C 26.71875 -9.207031 26.515625 -8.300781 26.296875 -7.375 C 26.078125 -6.445312 25.851562 -5.539062 25.625 -4.65625 C 25.394531 -3.78125 25.175781 -2.976562 24.96875 -2.25 C 24.757812 -1.519531 24.566406 -0.914062 24.390625 -0.4375 C 23.972656 -0.300781 23.476562 -0.148438 22.90625 0.015625 C 22.332031 0.179688 21.71875 0.316406 21.0625 0.421875 C 20.414062 0.523438 19.757812 0.554688 19.09375 0.515625 C 18.425781 0.484375 17.796875 0.335938 17.203125 0.078125 C 16.609375 -0.171875 16.078125 -0.578125 15.609375 -1.140625 C 15.148438 -1.710938 14.789062 -2.476562 14.53125 -3.4375 C 14.382812 -3.988281 14.269531 -4.503906 14.1875 -4.984375 C 14.113281 -5.460938 14.046875 -5.984375 13.984375 -6.546875 C 13.929688 -7.109375 13.863281 -7.78125 13.78125 -8.5625 C 13.726562 -8.5625 13.6875 -8.5625 13.65625 -8.5625 C 13.625 -8.5625 13.59375 -8.5625 13.5625 -8.5625 C 13.425781 -7.457031 13.269531 -6.207031 13.09375 -4.8125 C 12.914062 -3.414062 12.738281 -2.019531 12.5625 -0.625 C 12.144531 -0.488281 11.65625 -0.335938 11.09375 -0.171875 C 10.53125 -0.015625 9.925781 0.113281 9.28125 0.21875 C 8.644531 0.320312 8 0.359375 7.34375 0.328125 C 6.695312 0.304688 6.066406 0.191406 5.453125 -0.015625 C 4.835938 -0.234375 4.273438 -0.585938 3.765625 -1.078125 C 3.265625 -1.578125 2.84375 -2.242188 2.5 -3.078125 C 2.300781 -3.554688 2.125 -4.179688 1.96875 -4.953125 C 1.820312 -5.734375 1.6875 -6.601562 1.5625 -7.5625 C 1.445312 -8.53125 1.332031 -9.539062 1.21875 -10.59375 C 1.101562 -11.644531 0.992188 -12.691406 0.890625 -13.734375 C 0.796875 -14.773438 0.695312 -15.753906 0.59375 -16.671875 C 0.695312 -17.054688 0.925781 -17.398438 1.28125 -17.703125 C 1.644531 -18.003906 2.066406 -18.242188 2.546875 -18.421875 C 3.035156 -18.597656 3.546875 -18.691406 4.078125 -18.703125 C 4.609375 -18.722656 5.113281 -18.640625 5.59375 -18.453125 C 6.070312 -18.273438 6.472656 -17.976562 6.796875 -17.5625 C 7.128906 -17.144531 7.332031 -16.59375 7.40625 -15.90625 C 7.632812 -13.78125 7.757812 -11.910156 7.78125 -10.296875 C 7.800781 -8.691406 7.875 -7.363281 8 -6.3125 C 8.019531 -6.3125 8.046875 -6.3125 8.078125 -6.3125 C 8.109375 -6.3125 8.144531 -6.3125 8.1875 -6.3125 C 8.351562 -7.03125 8.519531 -7.742188 8.6875 -8.453125 C 8.863281 -9.171875 9.039062 -9.898438 9.21875 -10.640625 C 9.375 -11.273438 9.550781 -11.972656 9.75 -12.734375 C 9.957031 -13.503906 10.160156 -14.257812 10.359375 -15 C 10.554688 -15.738281 10.734375 -16.390625 10.890625 -16.953125 C 11.054688 -17.515625 11.171875 -17.914062 11.234375 -18.15625 C 11.515625 -18.25 11.863281 -18.34375 12.28125 -18.4375 C 12.695312 -18.539062 13.140625 -18.601562 13.609375 -18.625 C 14.085938 -18.65625 14.546875 -18.617188 14.984375 -18.515625 C 15.429688 -18.410156 15.832031 -18.207031 16.1875 -17.90625 C 16.539062 -17.613281 16.800781 -17.1875 16.96875 -16.625 C 17.4375 -15.132812 17.894531 -13.5 18.34375 -11.71875 C 18.789062 -9.945312 19.273438 -8.109375 19.796875 -6.203125 C 19.835938 -6.210938 19.894531 -6.21875 19.96875 -6.21875 C 20.0625 -6.789062 20.160156 -7.472656 20.265625 -8.265625 C 20.367188 -9.066406 20.46875 -9.921875 20.5625 -10.828125 C 20.664062 -11.734375 20.765625 -12.632812 20.859375 -13.53125 C 20.953125 -14.425781 21.03125 -15.253906 21.09375 -16.015625 C 21.164062 -16.773438 21.21875 -17.414062 21.25 -17.9375 Z M 21.25 -17.9375 "/></g></g><g style="fill:#000000;fill-opacity:1;"><g transform="translate(154.620863, 257.477061)"><path style="stroke:none" d="M 13.484375 -10.390625 C 14.421875 -9.816406 15.113281 -9.144531 15.5625 -8.375 C 16.007812 -7.613281 16.25 -6.820312 16.28125 -6 C 16.320312 -5.175781 16.203125 -4.378906 15.921875 -3.609375 C 15.640625 -2.847656 15.226562 -2.175781 14.6875 -1.59375 C 14.15625 -1.007812 13.546875 -0.578125 12.859375 -0.296875 C 12.359375 -0.0976562 11.75 0.0664062 11.03125 0.203125 C 10.320312 0.335938 9.550781 0.421875 8.71875 0.453125 C 7.882812 0.484375 7.023438 0.4375 6.140625 0.3125 C 5.265625 0.195312 4.414062 -0.0078125 3.59375 -0.3125 C 2.769531 -0.625 2.023438 -1.050781 1.359375 -1.59375 C 1.003906 -2.039062 0.789062 -2.53125 0.71875 -3.0625 C 0.65625 -3.59375 0.707031 -4.097656 0.875 -4.578125 C 1.050781 -5.066406 1.320312 -5.476562 1.6875 -5.8125 C 2.050781 -6.15625 2.484375 -6.367188 2.984375 -6.453125 C 3.492188 -6.535156 4.050781 -6.425781 4.65625 -6.125 C 5.53125 -5.695312 6.351562 -5.40625 7.125 -5.25 C 7.90625 -5.101562 8.550781 -5.085938 9.0625 -5.203125 C 9.582031 -5.316406 9.890625 -5.554688 9.984375 -5.921875 C 10.085938 -6.296875 10.007812 -6.601562 9.75 -6.84375 C 9.488281 -7.09375 9.015625 -7.242188 8.328125 -7.296875 C 7.578125 -7.359375 6.828125 -7.488281 6.078125 -7.6875 C 5.328125 -7.882812 4.625 -8.171875 3.96875 -8.546875 C 3.3125 -8.921875 2.757812 -9.410156 2.3125 -10.015625 C 1.863281 -10.628906 1.566406 -11.363281 1.421875 -12.21875 C 1.367188 -12.53125 1.363281 -12.910156 1.40625 -13.359375 C 1.457031 -13.804688 1.570312 -14.28125 1.75 -14.78125 C 1.925781 -15.289062 2.195312 -15.789062 2.5625 -16.28125 C 2.925781 -16.78125 3.40625 -17.234375 4 -17.640625 C 4.601562 -18.046875 5.351562 -18.363281 6.25 -18.59375 C 6.863281 -18.769531 7.515625 -18.878906 8.203125 -18.921875 C 8.890625 -18.960938 9.570312 -18.953125 10.25 -18.890625 C 10.9375 -18.828125 11.578125 -18.707031 12.171875 -18.53125 C 12.765625 -18.363281 13.257812 -18.148438 13.65625 -17.890625 C 14.289062 -17.460938 14.75 -17.003906 15.03125 -16.515625 C 15.3125 -16.035156 15.445312 -15.554688 15.4375 -15.078125 C 15.4375 -14.609375 15.328125 -14.164062 15.109375 -13.75 C 14.890625 -13.332031 14.597656 -12.976562 14.234375 -12.6875 C 13.878906 -12.40625 13.488281 -12.210938 13.0625 -12.109375 C 12.789062 -12.441406 12.414062 -12.726562 11.9375 -12.96875 C 11.46875 -13.207031 10.957031 -13.390625 10.40625 -13.515625 C 9.851562 -13.648438 9.332031 -13.710938 8.84375 -13.703125 C 8.351562 -13.703125 7.953125 -13.625 7.640625 -13.46875 C 7.328125 -13.3125 7.160156 -13.078125 7.140625 -12.765625 C 7.140625 -12.566406 7.226562 -12.398438 7.40625 -12.265625 C 7.582031 -12.140625 7.898438 -12.046875 8.359375 -11.984375 C 9.710938 -11.816406 10.820312 -11.5625 11.6875 -11.21875 C 12.550781 -10.882812 13.148438 -10.609375 13.484375 -10.390625 Z M 13.484375 -10.390625 "/></g></g><g style="fill:#000000;fill-opacity:1;"><g transform="translate(171.210161, 257.477061)"><path style="stroke:none" d="M 7.59375 -14.84375 C 7.65625 -14.476562 7.703125 -13.945312 7.734375 -13.25 C 7.765625 -12.550781 7.78125 -11.753906 7.78125 -10.859375 C 7.789062 -9.960938 7.785156 -9.023438 7.765625 -8.046875 C 7.753906 -7.078125 7.726562 -6.117188 7.6875 -5.171875 C 7.65625 -4.222656 7.613281 -3.347656 7.5625 -2.546875 C 7.519531 -1.753906 7.460938 -1.101562 7.390625 -0.59375 C 7.078125 -0.257812 6.679688 -0.0195312 6.203125 0.125 C 5.734375 0.269531 5.226562 0.304688 4.6875 0.234375 C 4.15625 0.171875 3.632812 -0.00390625 3.125 -0.296875 C 2.625 -0.597656 2.179688 -1.03125 1.796875 -1.59375 C 1.410156 -2.15625 1.140625 -2.847656 0.984375 -3.671875 C 0.929688 -3.910156 0.882812 -4.300781 0.84375 -4.84375 C 0.8125 -5.394531 0.78125 -6.039062 0.75 -6.78125 C 0.71875 -7.53125 0.695312 -8.332031 0.6875 -9.1875 C 0.675781 -10.050781 0.671875 -10.914062 0.671875 -11.78125 C 0.679688 -12.65625 0.695312 -13.484375 0.71875 -14.265625 C 0.738281 -15.054688 0.773438 -15.753906 0.828125 -16.359375 C 0.890625 -16.972656 0.960938 -17.441406 1.046875 -17.765625 C 1.390625 -18.078125 1.8125 -18.3125 2.3125 -18.46875 C 2.8125 -18.625 3.335938 -18.691406 3.890625 -18.671875 C 4.453125 -18.648438 4.988281 -18.503906 5.5 -18.234375 C 6.007812 -17.960938 6.453125 -17.550781 6.828125 -17 C 7.203125 -16.445312 7.457031 -15.726562 7.59375 -14.84375 Z M 7.59375 -14.84375 "/></g></g><g style="fill:#000000;fill-opacity:1;"><g transform="translate(179.232348, 257.477061)"><path style="stroke:none" d="M 16.609375 -18.4375 C 16.804688 -18.175781 16.96875 -17.804688 17.09375 -17.328125 C 17.21875 -16.847656 17.273438 -16.328125 17.265625 -15.765625 C 17.253906 -15.203125 17.132812 -14.660156 16.90625 -14.140625 C 16.6875 -13.628906 16.332031 -13.191406 15.84375 -12.828125 C 15.363281 -12.472656 14.710938 -12.269531 13.890625 -12.21875 C 13.566406 -12.207031 13.296875 -12.191406 13.078125 -12.171875 C 12.867188 -12.160156 12.738281 -12.15625 12.6875 -12.15625 C 12.707031 -11.46875 12.722656 -10.707031 12.734375 -9.875 C 12.742188 -9.050781 12.738281 -8.203125 12.71875 -7.328125 C 12.707031 -6.453125 12.679688 -5.597656 12.640625 -4.765625 C 12.609375 -3.941406 12.566406 -3.164062 12.515625 -2.4375 C 12.472656 -1.71875 12.414062 -1.109375 12.34375 -0.609375 C 12.03125 -0.265625 11.632812 -0.0195312 11.15625 0.125 C 10.6875 0.269531 10.179688 0.304688 9.640625 0.234375 C 9.109375 0.171875 8.585938 -0.015625 8.078125 -0.328125 C 7.578125 -0.640625 7.132812 -1.078125 6.75 -1.640625 C 6.363281 -2.210938 6.085938 -2.925781 5.921875 -3.78125 C 5.878906 -4.039062 5.835938 -4.457031 5.796875 -5.03125 C 5.765625 -5.601562 5.734375 -6.273438 5.703125 -7.046875 C 5.671875 -7.816406 5.644531 -8.640625 5.625 -9.515625 C 5.613281 -10.398438 5.617188 -11.285156 5.640625 -12.171875 C 5.015625 -12.117188 4.375 -12.09375 3.71875 -12.09375 C 3.070312 -12.101562 2.445312 -12.171875 1.84375 -12.296875 C 1.613281 -12.609375 1.441406 -13.003906 1.328125 -13.484375 C 1.210938 -13.972656 1.179688 -14.488281 1.234375 -15.03125 C 1.285156 -15.570312 1.425781 -16.085938 1.65625 -16.578125 C 1.894531 -17.078125 2.238281 -17.488281 2.6875 -17.8125 C 3.144531 -18.132812 3.726562 -18.320312 4.4375 -18.375 C 4.832031 -18.394531 5.351562 -18.410156 6 -18.421875 C 6.644531 -18.441406 7.363281 -18.453125 8.15625 -18.453125 C 8.945312 -18.453125 9.757812 -18.453125 10.59375 -18.453125 C 11.4375 -18.453125 12.25 -18.445312 13.03125 -18.4375 C 13.8125 -18.4375 14.515625 -18.4375 15.140625 -18.4375 C 15.773438 -18.4375 16.265625 -18.4375 16.609375 -18.4375 Z M 16.609375 -18.4375 "/></g></g><g style="fill:#000000;fill-opacity:1;"><g transform="translate(127.844731, 279.29257)"><path style="stroke:none" d="M 13.484375 -10.390625 C 14.421875 -9.816406 15.113281 -9.144531 15.5625 -8.375 C 16.007812 -7.613281 16.25 -6.820312 16.28125 -6 C 16.320312 -5.175781 16.203125 -4.378906 15.921875 -3.609375 C 15.640625 -2.847656 15.226562 -2.175781 14.6875 -1.59375 C 14.15625 -1.007812 13.546875 -0.578125 12.859375 -0.296875 C 12.359375 -0.0976562 11.75 0.0664062 11.03125 0.203125 C 10.320312 0.335938 9.550781 0.421875 8.71875 0.453125 C 7.882812 0.484375 7.023438 0.4375 6.140625 0.3125 C 5.265625 0.195312 4.414062 -0.0078125 3.59375 -0.3125 C 2.769531 -0.625 2.023438 -1.050781 1.359375 -1.59375 C 1.003906 -2.039062 0.789062 -2.53125 0.71875 -3.0625 C 0.65625 -3.59375 0.707031 -4.097656 0.875 -4.578125 C 1.050781 -5.066406 1.320312 -5.476562 1.6875 -5.8125 C 2.050781 -6.15625 2.484375 -6.367188 2.984375 -6.453125 C 3.492188 -6.535156 4.050781 -6.425781 4.65625 -6.125 C 5.53125 -5.695312 6.351562 -5.40625 7.125 -5.25 C 7.90625 -5.101562 8.550781 -5.085938 9.0625 -5.203125 C 9.582031 -5.316406 9.890625 -5.554688 9.984375 -5.921875 C 10.085938 -6.296875 10.007812 -6.601562 9.75 -6.84375 C 9.488281 -7.09375 9.015625 -7.242188 8.328125 -7.296875 C 7.578125 -7.359375 6.828125 -7.488281 6.078125 -7.6875 C 5.328125 -7.882812 4.625 -8.171875 3.96875 -8.546875 C 3.3125 -8.921875 2.757812 -9.410156 2.3125 -10.015625 C 1.863281 -10.628906 1.566406 -11.363281 1.421875 -12.21875 C 1.367188 -12.53125 1.363281 -12.910156 1.40625 -13.359375 C 1.457031 -13.804688 1.570312 -14.28125 1.75 -14.78125 C 1.925781 -15.289062 2.195312 -15.789062 2.5625 -16.28125 C 2.925781 -16.78125 3.40625 -17.234375 4 -17.640625 C 4.601562 -18.046875 5.351562 -18.363281 6.25 -18.59375 C 6.863281 -18.769531 7.515625 -18.878906 8.203125 -18.921875 C 8.890625 -18.960938 9.570312 -18.953125 10.25 -18.890625 C 10.9375 -18.828125 11.578125 -18.707031 12.171875 -18.53125 C 12.765625 -18.363281 13.257812 -18.148438 13.65625 -17.890625 C 14.289062 -17.460938 14.75 -17.003906 15.03125 -16.515625 C 15.3125 -16.035156 15.445312 -15.554688 15.4375 -15.078125 C 15.4375 -14.609375 15.328125 -14.164062 15.109375 -13.75 C 14.890625 -13.332031 14.597656 -12.976562 14.234375 -12.6875 C 13.878906 -12.40625 13.488281 -12.210938 13.0625 -12.109375 C 12.789062 -12.441406 12.414062 -12.726562 11.9375 -12.96875 C 11.46875 -13.207031 10.957031 -13.390625 10.40625 -13.515625 C 9.851562 -13.648438 9.332031 -13.710938 8.84375 -13.703125 C 8.351562 -13.703125 7.953125 -13.625 7.640625 -13.46875 C 7.328125 -13.3125 7.160156 -13.078125 7.140625 -12.765625 C 7.140625 -12.566406 7.226562 -12.398438 7.40625 -12.265625 C 7.582031 -12.140625 7.898438 -12.046875 8.359375 -11.984375 C 9.710938 -11.816406 10.820312 -11.5625 11.6875 -11.21875 C 12.550781 -10.882812 13.148438 -10.609375 13.484375 -10.390625 Z M 13.484375 -10.390625 "/></g></g><g style="fill:#000000;fill-opacity:1;"><g transform="translate(144.434029, 279.29257)"><path style="stroke:none" d="M 10.21875 -18.84375 C 11.46875 -18.851562 12.5625 -18.707031 13.5 -18.40625 C 14.445312 -18.113281 15.253906 -17.734375 15.921875 -17.265625 C 16.585938 -16.796875 17.140625 -16.296875 17.578125 -15.765625 C 18.015625 -15.242188 18.359375 -14.742188 18.609375 -14.265625 C 18.859375 -13.796875 19.039062 -13.410156 19.15625 -13.109375 C 19.582031 -11.929688 19.832031 -10.738281 19.90625 -9.53125 C 19.988281 -8.332031 19.847656 -7.125 19.484375 -5.90625 C 18.472656 -2.664062 16.320312 -0.660156 13.03125 0.109375 C 11.707031 0.429688 10.398438 0.53125 9.109375 0.40625 C 7.816406 0.289062 6.550781 -0.0820312 5.3125 -0.71875 C 4.144531 -1.320312 3.210938 -2.109375 2.515625 -3.078125 C 1.828125 -4.046875 1.335938 -5.160156 1.046875 -6.421875 C 0.867188 -7.222656 0.765625 -8.039062 0.734375 -8.875 C 0.703125 -9.71875 0.75 -10.53125 0.875 -11.3125 C 1.007812 -12.101562 1.222656 -12.816406 1.515625 -13.453125 C 1.804688 -14.097656 2.1875 -14.738281 2.65625 -15.375 C 3.125 -16.007812 3.703125 -16.585938 4.390625 -17.109375 C 5.085938 -17.628906 5.914062 -18.046875 6.875 -18.359375 C 7.832031 -18.679688 8.945312 -18.84375 10.21875 -18.84375 Z M 10.3125 -12.21875 C 9.851562 -12.21875 9.425781 -12.09375 9.03125 -11.84375 C 8.644531 -11.59375 8.34375 -11.21875 8.125 -10.71875 C 7.90625 -10.21875 7.820312 -9.597656 7.875 -8.859375 C 7.914062 -8.148438 8.070312 -7.582031 8.34375 -7.15625 C 8.625 -6.738281 8.953125 -6.441406 9.328125 -6.265625 C 9.710938 -6.085938 10.0625 -6.015625 10.375 -6.046875 C 10.707031 -6.066406 11.039062 -6.171875 11.375 -6.359375 C 11.71875 -6.554688 12.007812 -6.863281 12.25 -7.28125 C 12.488281 -7.695312 12.628906 -8.25 12.671875 -8.9375 C 12.722656 -9.632812 12.640625 -10.226562 12.421875 -10.71875 C 12.203125 -11.207031 11.90625 -11.578125 11.53125 -11.828125 C 11.15625 -12.085938 10.75 -12.21875 10.3125 -12.21875 Z M 10.3125 -12.21875 "/></g></g><g style="fill:#000000;fill-opacity:1;"><g transform="translate(164.309845, 279.29257)"><path style="stroke:none" d="M 1.078125 -3.4375 C 1.023438 -3.863281 0.984375 -4.445312 0.953125 -5.1875 C 0.929688 -5.9375 0.914062 -6.78125 0.90625 -7.71875 C 0.90625 -8.664062 0.910156 -9.644531 0.921875 -10.65625 C 0.941406 -11.664062 0.972656 -12.65625 1.015625 -13.625 C 1.054688 -14.59375 1.097656 -15.476562 1.140625 -16.28125 C 1.191406 -17.082031 1.25 -17.742188 1.3125 -18.265625 C 1.925781 -18.328125 2.671875 -18.375 3.546875 -18.40625 C 4.421875 -18.4375 5.363281 -18.453125 6.375 -18.453125 C 7.382812 -18.460938 8.398438 -18.457031 9.421875 -18.4375 C 10.441406 -18.414062 11.40625 -18.382812 12.3125 -18.34375 C 13.21875 -18.3125 13.992188 -18.273438 14.640625 -18.234375 C 14.753906 -18.066406 14.851562 -17.816406 14.9375 -17.484375 C 15.03125 -17.148438 15.078125 -16.773438 15.078125 -16.359375 C 15.085938 -15.941406 15.035156 -15.515625 14.921875 -15.078125 C 14.804688 -14.648438 14.609375 -14.253906 14.328125 -13.890625 C 14.054688 -13.535156 13.675781 -13.242188 13.1875 -13.015625 C 12.707031 -12.796875 12.097656 -12.6875 11.359375 -12.6875 C 11.109375 -12.6875 10.878906 -12.6875 10.671875 -12.6875 C 10.460938 -12.6875 10.226562 -12.6875 9.96875 -12.6875 C 9.707031 -12.6875 9.382812 -12.6875 9 -12.6875 C 8.625 -12.6875 8.140625 -12.6875 7.546875 -12.6875 C 7.546875 -12.59375 7.546875 -12.390625 7.546875 -12.078125 C 7.546875 -11.765625 7.546875 -11.453125 7.546875 -11.140625 C 7.546875 -10.828125 7.546875 -10.609375 7.546875 -10.484375 C 7.816406 -10.484375 8.1875 -10.488281 8.65625 -10.5 C 9.132812 -10.519531 9.648438 -10.53125 10.203125 -10.53125 C 10.765625 -10.53125 11.3125 -10.503906 11.84375 -10.453125 C 12.382812 -10.398438 12.847656 -10.3125 13.234375 -10.1875 C 13.523438 -9.570312 13.6875 -8.957031 13.71875 -8.34375 C 13.75 -7.726562 13.65625 -7.160156 13.4375 -6.640625 C 13.226562 -6.117188 12.898438 -5.691406 12.453125 -5.359375 C 12.015625 -5.035156 11.457031 -4.863281 10.78125 -4.84375 C 10.476562 -4.832031 10.191406 -4.828125 9.921875 -4.828125 C 9.648438 -4.828125 9.332031 -4.828125 8.96875 -4.828125 C 8.613281 -4.835938 8.148438 -4.84375 7.578125 -4.84375 C 7.578125 -4.75 7.578125 -4.566406 7.578125 -4.296875 C 7.578125 -4.023438 7.578125 -3.703125 7.578125 -3.328125 C 7.578125 -2.953125 7.570312 -2.570312 7.5625 -2.1875 C 7.550781 -1.800781 7.539062 -1.445312 7.53125 -1.125 C 7.519531 -0.800781 7.507812 -0.566406 7.5 -0.421875 C 7.175781 -0.191406 6.765625 -0.03125 6.265625 0.0625 C 5.765625 0.164062 5.238281 0.1875 4.6875 0.125 C 4.132812 0.0625 3.597656 -0.0976562 3.078125 -0.359375 C 2.566406 -0.617188 2.128906 -1 1.765625 -1.5 C 1.398438 -2.007812 1.171875 -2.65625 1.078125 -3.4375 Z M 1.078125 -3.4375 "/></g></g><g style="fill:#000000;fill-opacity:1;"><g transform="translate(179.237413, 279.29257)"><path style="stroke:none" d="M 16.609375 -18.4375 C 16.804688 -18.175781 16.96875 -17.804688 17.09375 -17.328125 C 17.21875 -16.847656 17.273438 -16.328125 17.265625 -15.765625 C 17.253906 -15.203125 17.132812 -14.660156 16.90625 -14.140625 C 16.6875 -13.628906 16.332031 -13.191406 15.84375 -12.828125 C 15.363281 -12.472656 14.710938 -12.269531 13.890625 -12.21875 C 13.566406 -12.207031 13.296875 -12.191406 13.078125 -12.171875 C 12.867188 -12.160156 12.738281 -12.15625 12.6875 -12.15625 C 12.707031 -11.46875 12.722656 -10.707031 12.734375 -9.875 C 12.742188 -9.050781 12.738281 -8.203125 12.71875 -7.328125 C 12.707031 -6.453125 12.679688 -5.597656 12.640625 -4.765625 C 12.609375 -3.941406 12.566406 -3.164062 12.515625 -2.4375 C 12.472656 -1.71875 12.414062 -1.109375 12.34375 -0.609375 C 12.03125 -0.265625 11.632812 -0.0195312 11.15625 0.125 C 10.6875 0.269531 10.179688 0.304688 9.640625 0.234375 C 9.109375 0.171875 8.585938 -0.015625 8.078125 -0.328125 C 7.578125 -0.640625 7.132812 -1.078125 6.75 -1.640625 C 6.363281 -2.210938 6.085938 -2.925781 5.921875 -3.78125 C 5.878906 -4.039062 5.835938 -4.457031 5.796875 -5.03125 C 5.765625 -5.601562 5.734375 -6.273438 5.703125 -7.046875 C 5.671875 -7.816406 5.644531 -8.640625 5.625 -9.515625 C 5.613281 -10.398438 5.617188 -11.285156 5.640625 -12.171875 C 5.015625 -12.117188 4.375 -12.09375 3.71875 -12.09375 C 3.070312 -12.101562 2.445312 -12.171875 1.84375 -12.296875 C 1.613281 -12.609375 1.441406 -13.003906 1.328125 -13.484375 C 1.210938 -13.972656 1.179688 -14.488281 1.234375 -15.03125 C 1.285156 -15.570312 1.425781 -16.085938 1.65625 -16.578125 C 1.894531 -17.078125 2.238281 -17.488281 2.6875 -17.8125 C 3.144531 -18.132812 3.726562 -18.320312 4.4375 -18.375 C 4.832031 -18.394531 5.351562 -18.410156 6 -18.421875 C 6.644531 -18.441406 7.363281 -18.453125 8.15625 -18.453125 C 8.945312 -18.453125 9.757812 -18.453125 10.59375 -18.453125 C 11.4375 -18.453125 12.25 -18.445312 13.03125 -18.4375 C 13.8125 -18.4375 14.515625 -18.4375 15.140625 -18.4375 C 15.773438 -18.4375 16.265625 -18.4375 16.609375 -18.4375 Z M 16.609375 -18.4375 "/></g></g><g style="fill:#ffffff;fill-opacity:1;"><g transform="translate(190.594607, 199.398175)"><path style="stroke:none" d="M 35.234375 -69.296875 C 35.234375 -67.785156 34.753906 -66.46875 33.796875 -65.34375 C 32.847656 -64.226562 31.71875 -63.304688 30.40625 -62.578125 C 29.21875 -61.859375 28 -61.085938 26.75 -60.265625 C 25.5 -59.441406 24.347656 -58.519531 23.296875 -57.5 C 22.242188 -56.476562 21.382812 -55.34375 20.71875 -54.09375 C 20.0625 -52.84375 19.734375 -51.425781 19.734375 -49.84375 C 19.734375 -48.46875 20.0625 -47.21875 20.71875 -46.09375 C 21.382812 -44.976562 22.191406 -43.875 23.140625 -42.78125 C 24.097656 -41.695312 25.148438 -40.578125 26.296875 -39.421875 C 27.453125 -38.273438 28.503906 -36.992188 29.453125 -35.578125 C 30.410156 -34.171875 31.21875 -32.578125 31.875 -30.796875 C 32.539062 -29.015625 32.875 -26.941406 32.875 -24.578125 C 32.875 -22.929688 32.523438 -21.070312 31.828125 -19 C 31.140625 -16.925781 30.203125 -14.835938 29.015625 -12.734375 C 27.835938 -10.628906 26.441406 -8.585938 24.828125 -6.609375 C 23.210938 -4.640625 21.5 -2.878906 19.6875 -1.328125 C 17.882812 0.210938 15.992188 1.457031 14.015625 2.40625 C 12.046875 3.363281 10.140625 3.84375 8.296875 3.84375 C 6.253906 3.84375 4.441406 3.285156 2.859375 2.171875 C 1.285156 1.054688 0.5 -0.617188 0.5 -2.859375 C 0.5 -4.378906 0.859375 -5.78125 1.578125 -7.0625 C 2.304688 -8.34375 3.195312 -9.570312 4.25 -10.75 C 5.300781 -11.9375 6.46875 -13.085938 7.75 -14.203125 C 9.03125 -15.328125 10.195312 -16.445312 11.25 -17.5625 C 12.300781 -18.6875 13.1875 -19.859375 13.90625 -21.078125 C 14.632812 -22.296875 15 -23.59375 15 -24.96875 C 15 -26.882812 14.320312 -28.84375 12.96875 -30.84375 C 11.625 -32.851562 10.128906 -34.925781 8.484375 -37.0625 C 6.835938 -39.195312 5.335938 -41.382812 3.984375 -43.625 C 2.640625 -45.863281 1.96875 -48.132812 1.96875 -50.4375 C 1.96875 -53.269531 2.722656 -56.25 4.234375 -59.375 C 5.753906 -62.5 7.695312 -65.359375 10.0625 -67.953125 C 12.4375 -70.554688 15.101562 -72.710938 18.0625 -74.421875 C 21.019531 -76.140625 23.945312 -77 26.84375 -77 C 29.144531 -77 31.117188 -76.304688 32.765625 -74.921875 C 34.410156 -73.535156 35.234375 -71.660156 35.234375 -69.296875 Z M 35.234375 -69.296875 "/></g></g></g></svg>